<?xml version="1.0" standalone="no"?>
<!DOCTYPE svg PUBLIC "-//W3C//DTD SVG 20010904//EN"
 "http://www.w3.org/TR/2001/REC-SVG-20010904/DTD/svg10.dtd">
<svg version="1.0" xmlns="http://www.w3.org/2000/svg"
 width="75.000000pt" height="75.000000pt" viewBox="0 0 75.000000 75.000000"
 preserveAspectRatio="xMidYMid meet">

<g transform="translate(0.000000,75.000000) scale(0.100000,-0.100000)"
fill="#ffffff" stroke="#ffffff" stroke-width="1rem">
<path d="M329 612 c-25 -26 -59 -64 -75 -86 -27 -36 -27 -39 -10 -52 17 -12
21 -9 43 24 14 20 39 52 56 69 36 38 39 37 103 -49 36 -49 44 -55 58 -45 15
11 14 16 -13 57 -16 25 -49 64 -73 87 l-44 43 -45 -48z"/>
<path d="M71 468 c-6 -27 -11 -79 -11 -114 0 -57 2 -65 18 -62 12 2 18 14 20
43 8 137 12 141 97 101 96 -45 154 -117 155 -192 0 -38 20 -60 38 -42 7 7 12
27 12 45 0 73 59 145 155 189 86 40 85 42 97 -111 2 -19 9 -31 21 -33 15 -3
17 5 17 57 0 33 -5 83 -11 112 l-11 51 -41 -6 c-69 -11 -162 -62 -209 -115
l-43 -48 -43 48 c-44 49 -108 85 -198 112 l-51 15 -12 -50z"/>
<path d="M13 272 c-23 -15 69 -116 134 -148 55 -27 66 -29 211 -32 167 -4 213
5 283 53 48 34 105 113 91 127 -6 6 -50 9 -114 6 -90 -3 -109 -7 -155 -32 -29
-16 -60 -37 -69 -47 -16 -18 -18 -17 -56 12 -62 50 -126 69 -226 69 -48 0 -92
-4 -99 -8z m240 -56 c21 -11 52 -33 70 -50 l31 -31 -54 -3 c-33 -2 -71 3 -96
13 -50 19 -124 70 -124 86 0 18 129 6 173 -15z m407 4 c-15 -28 -107 -78 -155
-86 -22 -3 -56 -4 -75 -2 l-35 3 37 37 c46 44 104 66 181 67 55 1 57 0 47 -19z"/>
</g>
</svg>
